<svg width="153" height="23" viewBox="0 0 153 23" fill="none" xmlns="http://www.w3.org/2000/svg">
<g id="ASTRA_international 1" clip-path="url(#clip0_4_635)">
<g id="layer1">
<g id="g266">
<path id="path268" d="M44.352 18.9654H41.6796L43.0028 15.3714H43.0288L44.352 18.9654ZM38.4561 22.3348H40.3556L41.1553 20.3378H44.8633L45.6493 22.3348H47.6804L44.0903 13.6244H42.0194L38.4561 22.3348Z" fill="white"/>
</g>
<g id="g278">
<path id="path280" d="M54.3624 15.222C53.7854 14.9851 53.1441 14.8474 52.502 14.8474C51.8729 14.8474 51.0609 15.1097 51.0609 16.058C51.0609 17.5681 55.0696 16.9311 55.0696 19.8516C55.0696 21.7604 53.4846 22.4841 51.6372 22.4841C50.6415 22.4841 50.1961 22.3595 49.2915 22.1474L49.4621 20.5753C50.0912 20.8996 50.8114 21.1117 51.5323 21.1117C52.2264 21.1117 53.1571 20.775 53.1571 19.9886C53.1571 18.329 49.1476 19.0156 49.1476 16.133C49.1476 14.1863 50.7333 13.4749 52.3443 13.4749C53.1303 13.4749 53.8642 13.5748 54.5323 13.7869L54.3624 15.222Z" fill="white"/>
</g>
<g id="g282">
<path id="path284" d="M59.184 14.9972H56.5636V13.6248H63.6389V14.9972H61.0185V22.3345H59.184V14.9972Z" fill="white"/>
</g>
<g id="g286">
<path id="path288" d="M67.2682 14.9972H67.8712C68.7881 14.9972 69.8105 15.0847 69.8105 16.1328C69.8105 17.218 68.7751 17.3434 67.8712 17.3434H67.2682V14.9972ZM65.4337 22.3345H67.2682V18.7158H67.8575C68.6312 18.7158 68.8669 18.965 69.1287 19.6144L70.2292 22.3345H72.2733L70.8055 18.9279C70.6225 18.5409 70.334 18.0671 69.8366 18.0292V18.0044C71.0021 17.855 71.7231 17.0067 71.7231 15.9834C71.7231 13.5622 69.3781 13.6248 67.4121 13.6248H65.4337V22.3345Z" fill="white"/>
</g>
<g id="g290">
<path id="path292" d="M79.3354 18.9654H76.663L77.9862 15.3714H78.0122L79.3354 18.9654ZM73.4395 22.3348H75.3397L76.1387 20.3378H79.8467L80.6326 22.3348H82.6638L79.0737 13.6244H77.0035L73.4395 22.3348Z" fill="white"/>
</g>
<g id="g294">
<path id="path296" d="M49.238 4.42754C46.9497 4.58133 42.5798 5.23145 39.0058 5.82546C35.4317 6.41873 33.6868 6.81449 32.1845 7.15777C28.1987 8.06664 22.2216 9.68612 19.0655 10.6475C16.2422 11.5053 8.86305 14.4411 8.64034 14.3966C8.52095 14.3704 8.27988 14.1328 8.65565 13.8937C7.9087 14.3675 19.4902 4.64474 38.4608 2.1798V0.51586H0.984131V19.8607C12.5496 15.4396 25.2025 13.7137 38.4608 13.702V9.03381L38.7823 8.95218H38.7838C46.3512 6.24089 55.1631 5.15128 69.4745 3.70526V3.24901C68.3104 3.25775 59.4267 3.36271 49.4171 4.41515C49.3566 4.4188 49.2992 4.42244 49.238 4.42754Z" fill="white"/>
</g>
<g id="g298">
<path id="path300" d="M69.4855 2.98927C69.4855 2.98927 60.5872 2.28667 49.3172 3.08693C45.8189 3.33619 42.0918 3.83326 38.6395 4.39447C31.2733 5.5956 25.1554 7.08972 25.1554 7.08972C25.1554 7.08972 24.7108 7.09482 25.1225 6.84556C25.7868 6.4447 31.1853 4.13938 38.6395 2.73927C40.2428 2.43754 41.9365 2.17661 43.7028 1.98711C43.9653 1.95796 43.7028 1.69412 43.7028 1.69412C41.9625 1.78668 40.2222 1.88799 38.589 2.11247C29.3172 3.38794 22.5755 6.07517 18.5232 7.97307C18.2515 8.09989 19.2082 7.52702 13.5349 10.524C13.5349 10.524 9.99835 12.7856 9.75575 13.0166C9.40217 13.3534 12.6632 11.9649 14.9675 11.1902C17.1104 10.4715 22.8656 8.90745 24.1773 8.53064C25.1294 8.25659 28.4172 7.60428 31.7961 6.95197C35.0203 6.32881 38.0686 5.92795 38.2584 5.91337C38.4933 5.89661 38.4589 5.91337 38.4589 5.91337C38.4589 5.91337 41.9709 5.37257 42.6559 5.2494C43.7166 5.06063 49.5353 4.39812 49.5958 4.39374C59.6045 3.3413 69.6539 3.24873 69.4748 3.24873L69.4855 2.98927Z" fill="white"/>
</g>
<path id="path302" d="M87.1256 13.6193H86.3373V14.6207H87.1256V13.6193ZM86.3373 22.3201H87.1256V16.2416H86.3373V22.3201Z" fill="white"/>
<g id="g304">
<path id="path306" d="M89.1154 17.6719C89.1154 17.2069 89.1154 16.7302 89.0657 16.2419H89.8287V17.3257H89.8539C90.1165 16.7776 90.5925 16.0983 91.9188 16.0983C93.4961 16.0983 94.0969 17.0998 94.0969 18.4343V22.3204H93.3086V18.6252C93.3086 17.4809 92.8831 16.7419 91.794 16.7419C90.3545 16.7419 89.9037 17.9459 89.9037 18.959V22.3204H89.1154V17.6719Z" fill="white"/>
</g>
<g id="g308">
<path id="path310" d="M98.8277 16.8851H97.3759V20.8187C97.3759 21.3668 97.5887 21.8201 98.2269 21.8201C98.5269 21.8201 98.7274 21.7604 98.9524 21.6765L99.003 22.2961C98.8147 22.3675 98.4274 22.4637 98.0387 22.4637C96.6374 22.4637 96.5876 21.5453 96.5876 20.4368V16.8851H95.3356V16.2416H96.5876V14.7752L97.3759 14.5135V16.2416H98.8277V16.8851Z" fill="white"/>
</g>
<g id="g312">
<path id="path314" d="M100.63 18.8519C100.63 17.8504 101.343 16.7419 102.507 16.7419C103.683 16.7419 104.134 17.7907 104.134 18.8519H100.63ZM104.522 21.3664C104.147 21.593 103.308 21.8197 102.732 21.8197C101.356 21.8197 100.63 20.7826 100.63 19.4954H104.998V19.1142C104.998 17.4809 104.259 16.0983 102.457 16.0983C100.842 16.0983 99.7662 17.4211 99.7662 19.2811C99.7662 21.1047 100.555 22.4633 102.67 22.4633C103.258 22.4633 103.971 22.3437 104.522 22.1294V21.3664Z" fill="white"/>
</g>
<g id="g316">
<path id="path318" d="M106.5 17.6002C106.5 16.9325 106.5 16.6826 106.449 16.2416H107.238V17.4092H107.263C107.551 16.7299 108.089 16.0988 108.903 16.0988C109.09 16.0988 109.315 16.1345 109.453 16.1695V16.9566C109.291 16.9092 109.078 16.8852 108.878 16.8852C107.626 16.8852 107.288 18.2197 107.288 19.3166V22.3201H106.5V17.6002Z" fill="white"/>
</g>
<g id="g320">
<path id="path322" d="M110.89 17.6719C110.89 17.2069 110.89 16.7302 110.84 16.2419H111.603V17.3257H111.629C111.891 16.7776 112.367 16.0983 113.693 16.0983C115.271 16.0983 115.872 17.0998 115.872 18.4343V22.3204H115.083V18.6252C115.083 17.4809 114.658 16.7419 113.569 16.7419C112.129 16.7419 111.678 17.9459 111.678 18.959V22.3204H110.89V17.6719Z" fill="white"/>
</g>
<g id="g324">
<path id="path326" d="M121.441 19.6265C121.441 20.2824 121.403 21.8196 119.551 21.8196C118.825 21.8196 118.224 21.5215 118.224 20.7227C118.224 19.3882 119.851 19.257 121.216 19.257H121.441V19.6265ZM121.516 22.3203H122.292C122.229 21.9027 122.229 21.5339 122.229 21.0448V18.3634C122.229 16.7782 121.566 16.0982 119.989 16.0982C119.426 16.0982 118.6 16.2891 118.112 16.5158V17.2425C118.7 16.8853 119.326 16.7417 119.989 16.7417C121.053 16.7417 121.441 17.2665 121.441 18.3036V18.6134H121.291C119.639 18.6134 117.361 18.7089 117.361 20.7467C117.361 21.2955 117.649 22.4631 119.463 22.4631C120.252 22.4631 121.141 22.0696 121.491 21.3429H121.516V22.3203Z" fill="white"/>
</g>
<g id="g328">
<path id="path330" d="M126.86 16.8851H125.408V20.8187C125.408 21.3668 125.621 21.8201 126.259 21.8201C126.56 21.8201 126.76 21.7604 126.986 21.6765L127.035 22.2961C126.848 22.3675 126.46 22.4637 126.072 22.4637C124.67 22.4637 124.62 21.5453 124.62 20.4368V16.8851H123.369V16.2416H124.62V14.7752L125.408 14.5135V16.2416H126.86V16.8851Z" fill="white"/>
</g>
<path id="path332" d="M128.274 16.2416H129.063V22.3201H128.274V16.2416ZM129.063 14.6207H128.274V13.6193H129.063V14.6207Z" fill="white"/>
<g id="g334">
<path id="path336" d="M131.428 19.2808C131.428 17.8742 132.167 16.7423 133.544 16.7423C134.92 16.7423 135.658 17.8742 135.658 19.2808C135.658 20.6875 134.92 21.8201 133.544 21.8201C132.167 21.8201 131.428 20.6875 131.428 19.2808ZM130.564 19.2808C130.564 20.9375 131.478 22.4637 133.544 22.4637C135.608 22.4637 136.522 20.9375 136.522 19.2808C136.522 17.6242 135.608 16.0987 133.544 16.0987C131.478 16.0987 130.564 17.6242 130.564 19.2808Z" fill="white"/>
</g>
<g id="g338">
<path id="path340" d="M138.011 17.6719C138.011 17.2069 138.011 16.7302 137.961 16.2419H138.725V17.3257H138.75C139.012 16.7776 139.489 16.0983 140.815 16.0983C142.392 16.0983 142.993 17.0998 142.993 18.4343V22.3204H142.205V18.6252C142.205 17.4809 141.779 16.7419 140.689 16.7419C139.25 16.7419 138.8 17.9459 138.8 18.959V22.3204H138.011V17.6719Z" fill="white"/>
</g>
<g id="g342">
<path id="path344" d="M148.562 19.6265C148.562 20.2824 148.524 21.8196 146.672 21.8196C145.946 21.8196 145.345 21.5215 145.345 20.7227C145.345 19.3882 146.972 19.257 148.337 19.257H148.562V19.6265ZM148.637 22.3203H149.413C149.351 21.9027 149.351 21.5339 149.351 21.0448V18.3634C149.351 16.7782 148.687 16.0982 147.11 16.0982C146.547 16.0982 145.721 16.2891 145.233 16.5158V17.2425C145.821 16.8853 146.446 16.7417 147.11 16.7417C148.174 16.7417 148.562 17.2665 148.562 18.3036V18.6134H148.412C146.76 18.6134 144.482 18.7089 144.482 20.7467C144.482 21.2955 144.77 22.4631 146.584 22.4631C147.373 22.4631 148.262 22.0696 148.612 21.3429H148.637V22.3203Z" fill="white"/>
</g>
<path id="path346" d="M151.228 13.3809H152.016V22.3201H151.228V13.3809Z" fill="white"/>
</g>
</g>
<defs>
<clipPath id="clip0_4_635">
<rect width="151.032" height="21.9682" fill="white" transform="translate(0.984131 0.515869)"/>
</clipPath>
</defs>
</svg>
