<svg width="174" height="173" viewBox="0 0 174 173" fill="none" xmlns="http://www.w3.org/2000/svg">
<g clip-path="url(#clip0_4_681)">
<path d="M91.1691 98.2096C91.115 98.2869 90.9587 98.28 90.9587 98.28H87.5491C87.5491 98.28 87.3962 98.2663 87.3353 98.1993C87.2743 98.1289 87.3207 97.9864 87.3207 97.9864L88.0522 95.7272L89.1693 92.4257C89.3376 92.3312 89.3625 92.4257 89.3625 92.4257L91.1691 97.9932C91.1691 97.9932 91.2249 98.134 91.1691 98.2096ZM97.5454 104.65L91.5246 88.6519C91.2421 88.0586 91.1726 87.8018 90.2693 87.8018H88.2257C87.3207 87.8018 87.2511 88.0586 86.9695 88.6519L80.9478 104.65C80.74 105.218 80.5923 105.491 81.2827 105.491H83.8543C84.7962 105.496 84.7911 105.543 85.0281 104.965L86.0284 102.045C86.2199 101.839 86.3633 101.839 86.3633 101.839H92.1299C92.1299 101.839 92.2725 101.839 92.3412 101.884L93.4677 104.965C93.703 105.543 93.6978 105.496 94.6389 105.491H97.2106C97.9009 105.491 97.7549 105.218 97.5454 104.65ZM66.7441 105.485C67.6551 105.485 67.692 105.235 67.692 104.619L67.6886 99.5611C67.6886 99.5611 67.6851 99.3671 67.7985 99.3396C67.9367 99.3027 68.0372 99.4675 68.0372 99.4675L72.8628 105.067C73.068 105.3 73.2148 105.49 73.6673 105.49H77.7785C78.2697 105.49 78.3907 105.235 77.9786 104.667L70.9274 96.9448C70.9274 96.9448 70.7986 96.804 70.7986 96.6228C70.7986 96.4373 70.9325 96.3094 70.9325 96.3094L77.6746 88.469C77.9597 88.0586 77.8412 87.8018 77.3501 87.8018H73.639C73.1865 87.8018 73.0422 87.9933 72.8336 88.2243L67.9307 93.7918C67.6886 93.8493 67.6886 93.7248 67.6886 93.7248L67.692 88.6742C67.692 88.0534 67.6551 87.8018 66.7441 87.8018H64.7099C63.798 87.8018 63.7568 88.0534 63.7568 88.6742V104.619C63.7568 105.235 63.798 105.485 64.7099 105.485H66.7441ZM140.729 91.446H145.514C146.125 91.446 146.381 91.4056 146.381 90.5641V88.6785C146.381 87.8353 146.125 87.8018 145.514 87.8018L137.303 87.7984C136.687 87.7984 136.435 87.8353 136.435 88.7378V104.547C136.435 105.453 136.687 105.49 137.303 105.49H145.514C146.125 105.49 146.381 105.455 146.381 104.609V102.741C146.381 101.896 146.125 101.862 145.514 101.862L140.729 101.855C140.729 101.855 140.37 101.871 140.347 101.433V98.59C140.362 98.2663 140.554 98.1993 140.661 98.1847H144.46C145.073 98.1847 145.327 98.1409 145.327 97.2986V95.7693C145.327 94.9278 145.073 94.8926 144.46 94.8926L140.711 94.8943C140.711 94.8943 140.37 94.9089 140.347 94.4727V91.865C140.37 91.4357 140.729 91.446 140.729 91.446ZM127.166 95.8818C127.99 95.3924 129.222 94.0391 129.222 92.266C129.222 92.1638 129.222 92.0565 129.212 91.9543C129.069 89.4453 127.24 87.8018 124.395 87.8018H118.767C117.861 87.8018 117.822 88.0534 117.822 88.6751V104.613C117.822 105.235 117.861 105.49 118.767 105.49H124.631C128.853 105.49 130.618 103.028 130.618 100.277C130.618 98.1195 129.265 96.2974 127.166 95.8818ZM121.736 91.2433H123.525C124.655 91.2433 125.31 91.8049 125.31 92.8731C125.31 93.9429 124.631 94.4985 123.525 94.4985H121.736V91.2433ZM124.199 102.001H121.736V98.456H124.199C125.358 98.456 126.567 98.9154 126.567 100.232C126.567 101.545 125.5 102.001 124.199 102.001ZM111.486 101.862L106.598 101.855C106.598 101.855 106.214 101.873 106.198 101.416L106.201 88.6691C106.201 88.0534 106.161 87.8018 105.257 87.8018H103.234C102.328 87.8018 102.289 88.0534 102.289 88.6691V103.942C102.289 105.197 102.631 105.49 103.809 105.49H111.486C112.107 105.49 112.353 105.455 112.353 104.609V102.741C112.353 101.896 112.107 101.862 111.486 101.862Z" fill="white"/>
<path d="M47.9592 105.575C47.5908 105.343 47.6303 104.581 47.5161 104.175C44.7375 94.4566 30.0684 91.1121 32.3413 80.0741C32.6006 78.8445 32.8187 77.5076 33.6722 76.3226C33.9229 75.9731 34.8159 75.494 34.3857 76.9091C33.6412 79.3391 33.7735 81.8112 36.285 84.7813C37.5309 86.2487 39.6329 87.6612 42.742 89.7555C48.7672 93.8143 49.485 101.111 49.1681 103.707C49.0479 104.896 48.8444 106.14 47.9592 105.575Z" fill="white"/>
<path d="M37.9875 62.421C38.2433 63.4609 38.9603 64.9515 40.8948 66.1373C43.9499 68.016 45.249 69.3976 45.7342 69.8939C49.3087 73.5552 48.8957 76.9126 47.9546 80.5198C47.606 81.3501 48.0199 82.2251 48.9953 80.7061C50.0892 79.0051 50.7143 78.0932 51.1934 76.0608C51.7816 73.5286 51.9911 70.1223 47.8172 66.7495C46.938 66.0368 46.021 65.4315 43.7653 64.6467C43.342 64.5007 40.9996 63.691 38.98 62.1463C38.2966 61.6225 37.7968 61.6663 37.9875 62.421Z" fill="white"/>
<path d="M47.711 61.4047C47.8793 61.7464 47.8433 62.1844 47.7265 62.5716C47.5548 63.1323 47.3032 63.5651 46.727 63.7222C46.399 63.8081 45.9448 63.8149 45.5867 63.7153C44.5959 63.4406 44.1485 62.5639 44.4138 61.676C44.674 60.789 45.5558 60.2258 46.5476 60.4919C47.1108 60.6499 47.4929 60.947 47.711 61.4047Z" fill="white"/>
<path d="M35.9163 94.9277C31.6961 99.4528 31.0341 104.48 31.6798 109.201C31.8232 110.294 31.9374 111.373 31.9511 111.925C31.9648 112.592 31.2187 112.88 30.7456 112.191C29.0703 109.763 27.9841 106.915 27.7781 105.357C27.1942 100.896 28.1086 95.9692 32.3555 91.6175C33.7053 90.2368 34.7726 89.4554 36.6797 88.3134C37.9444 87.5535 42.8611 85.8482 44.4556 85.1707C46.9053 84.1378 48.8226 82.7021 49.7817 81.5867C50.4197 80.8457 50.91 81.0131 50.4815 82.1199C49.586 84.4761 47.3243 87.3268 44.1473 89.403C41.2571 91.2852 37.0901 93.668 35.9163 94.9277Z" fill="white"/>
<path d="M38.2441 81.2746C38.0363 81.7289 37.9805 82.3462 38.1247 82.8494C38.3342 83.5836 38.7593 84.1056 39.4719 84.3065C39.891 84.4259 40.4482 84.4259 40.905 84.298C42.1389 83.9459 42.7013 82.8039 42.3673 81.6404C42.0367 80.4778 40.9377 79.7419 39.7038 80.0974C38.9954 80.2932 38.518 80.683 38.2441 81.2746Z" fill="white"/>
<path d="M36.0078 78.0312C39.5583 71.5878 51.9486 71.5698 52.3436 61.7691C52.3745 61.0641 52.3882 60.2913 52.1607 59.5048C52.0413 59.0634 51.5674 58.6916 51.4188 59.5915C51.0711 61.6626 49.559 65.5944 43.0788 68.7302C37.5895 71.3834 35.5776 75.0156 35.1457 77.4507C34.8753 78.9869 35.6815 78.6262 36.0078 78.0312Z" fill="white"/>
</g>
<defs>
<clipPath id="clip0_4_681">
<rect width="118.762" height="53.5476" fill="white" transform="translate(27.619 59.0397)"/>
</clipPath>
</defs>
</svg>
