<svg width="173" height="173" viewBox="0 0 173 173" fill="none" xmlns="http://www.w3.org/2000/svg">
<g clip-path="url(#clip0_4_731)">
<path d="M11.1613 94.7241C11.1613 92.5418 11.1231 90.7148 11.0051 89.0802H15.1365L15.3326 91.8848H15.4471C16.3823 90.4045 18.0966 88.6503 21.2927 88.6503C23.7879 88.6503 25.7347 90.0544 26.5537 92.1552H26.6335C27.2963 91.1048 28.0736 90.3248 28.969 89.7822C30.0222 89.0403 31.2333 88.6503 32.7897 88.6503C35.9477 88.6503 39.1403 90.7911 39.1403 96.8684V108.038H34.4641V97.5652C34.4641 94.4139 33.3727 92.5418 31.0737 92.5418C29.4375 92.5418 28.2281 93.7136 27.7231 95.076C27.5826 95.596 27.504 96.1307 27.4889 96.669V108.04H22.8127V97.0573C22.8127 94.4156 21.7612 92.5435 19.5385 92.5435C17.7496 92.5435 16.5419 93.9476 16.1082 95.2684C15.9156 95.7364 15.8357 96.2842 15.8357 96.825V108.04H11.1613V94.7241ZM57.361 103.486C57.361 105.197 57.439 106.87 57.6316 108.04H53.306L52.9954 105.939H52.8774C51.7079 107.42 49.7194 108.467 47.2694 108.467C43.4487 108.467 41.3058 105.705 41.3058 102.823C41.3058 98.0297 45.5499 95.6203 52.5685 95.6584V95.3482C52.5685 94.1001 52.0601 92.0374 48.7079 92.0374C46.8356 92.0374 44.8888 92.6233 43.6031 93.438L42.6679 90.323C44.0716 89.465 46.5268 88.6486 49.5251 88.6486C55.6067 88.6486 57.3627 92.5071 57.3627 96.6291L57.361 103.486ZM52.683 98.7768C49.2909 98.6971 46.0583 99.4373 46.0583 102.318C46.0583 104.187 47.2694 105.045 48.7877 105.045C50.6946 105.045 52.1 103.795 52.5286 102.434C52.6336 102.094 52.6862 101.74 52.6848 101.384V98.7768H52.683ZM60.6716 94.7241C60.6716 92.5418 60.6317 90.7148 60.5189 89.0802H64.7231L64.9557 91.9264H65.0736C65.8909 90.4444 67.9574 88.6503 71.1136 88.6503C74.4277 88.6503 77.8546 90.7911 77.8546 96.7904V108.038H73.0622V97.3346C73.0622 94.6097 72.0471 92.5401 69.4375 92.5401C67.5306 92.5401 66.2015 93.9042 65.6965 95.3464C65.5404 95.7728 65.5022 96.3587 65.5022 96.8996V108.037H60.6699L60.6716 94.7241ZM98.6381 81.4636V102.706C98.6381 104.653 98.7179 106.759 98.7942 108.04H94.5102L94.3141 105.045H94.2343C93.1065 107.146 90.8039 108.468 88.0399 108.468C83.5181 108.468 79.9351 104.615 79.9351 98.7786C79.8934 92.4309 83.8669 88.652 88.4303 88.652C91.0399 88.652 92.9104 89.7423 93.7675 91.1499H93.8491V81.4654H98.6398V81.4636H98.6381ZM93.8474 96.9828C93.8474 96.5962 93.8092 96.1282 93.7294 95.7364C93.3008 93.8713 91.7843 92.3511 89.5998 92.3511C86.5216 92.3511 84.8038 95.0778 84.8038 98.6191C84.8038 102.081 86.5199 104.613 89.5616 104.613C91.5067 104.613 93.2227 103.287 93.6895 101.224C93.8075 100.798 93.8491 100.328 93.8491 99.8238V96.9828H93.8474ZM102.029 108.04V89.0802H106.864V108.04H102.029ZM110.251 95.1939C110.251 92.625 110.215 90.7928 110.099 89.0819H114.268L114.421 92.6995H114.579C115.514 90.0145 117.733 89.0819 119.765 89.0819C120.232 89.0819 120.502 89.0022 120.891 89.0819V93.2889C120.431 93.1872 119.962 93.1349 119.491 93.1329C117.187 93.1329 115.629 94.6132 115.202 96.7505C115.107 97.2397 115.056 97.7361 115.047 98.2343V108.042H110.251V95.1939ZM123.116 108.04V89.0802H127.944V108.04H123.116Z" fill="white"/>
<path d="M158.025 69.0281C155.632 66.3015 153.088 67.5357 151.067 68.5393C150.217 68.9588 144.08 72.4343 144.08 72.4343C140.717 73.8192 138.099 72.3077 137.071 71.0354C136.973 70.9148 136.884 70.7867 136.806 70.6523L136.566 70.238C136.162 69.5388 135.712 68.8665 135.22 68.2256C134.921 67.837 134.598 67.4682 134.252 67.1214C131.951 64.8004 128.274 63.1762 122.128 66.1264C119.219 67.8113 109.74 73.2212 109.74 73.2212C106.177 74.686 103.453 72.9023 102.568 71.5936C102.528 71.5446 102.493 71.4917 102.464 71.4358L102.348 71.2382L101.747 70.2571C101.477 69.8273 101.186 69.4103 100.876 69.0073C100.575 68.6213 100.251 68.2532 99.9065 67.9049C97.6213 65.5977 93.9637 63.977 87.8716 66.8718C84.1879 68.9727 75.6198 73.8661 75.6198 73.8661L75.6164 73.8695L69.3456 77.449L72.5903 81.4289C73.9558 82.7289 76.5221 84.861 80.4921 83.0635C80.4921 83.0635 91.4495 76.7244 91.4928 76.7054C100.861 71.5693 105.483 76.4766 107.527 79.7475C107.598 79.8497 107.656 79.9607 107.72 80.0595L107.723 80.0647C107.749 80.1046 107.765 80.141 107.787 80.1791L108.018 80.557C109.014 82.065 110.585 83.0392 112.457 82.9941C113.489 82.9733 114.19 82.6371 115.21 82.0702L125.812 75.9271L125.835 75.9167C135.321 70.7182 140.021 75.9461 142.029 79.2171C142.185 79.4996 142.362 79.77 142.544 80.0214C143.538 81.3682 144.909 82.2505 146.651 82.2072C147.801 82.1846 149.091 81.4947 149.283 81.3682L161.993 74.0394C161.997 74.0429 160.699 72.0824 158.025 69.0281Z" fill="white"/>
</g>
<defs>
<clipPath id="clip0_4_731">
<rect width="151.032" height="43.9365" fill="white" transform="translate(10.9841 64.5317)"/>
</clipPath>
</defs>
</svg>
