<svg width="173" height="173" viewBox="0 0 173 173" fill="none" xmlns="http://www.w3.org/2000/svg">
<g clip-path="url(#clip0_4_711)">
<path d="M64.8331 82.8973H69.7374C71.1034 82.8973 72.2052 83.2374 73.0429 83.9175C73.8805 84.5912 74.4778 85.4798 74.4778 86.5834C74.4778 87.3084 74.4631 88.7009 74.048 89.3553C73.6405 90.0034 73.0216 90.4878 72.1915 90.8086C71.3614 91.1294 70.4592 91.2962 69.8706 91.309L67.7588 91.3475V95.534H64.8331V82.8973ZM67.7135 85.5928V88.865L69.5039 88.865C70.0398 88.865 70.4963 88.7014 70.8737 88.3741C71.2585 88.0469 71.451 87.6587 71.451 87.2096C71.451 86.6963 71.2359 86.2985 70.8057 86.0162C70.3756 85.7339 69.9287 85.5926 69.1363 85.5926L67.7135 85.5928Z" fill="white"/>
<path d="M76.1572 82.8972H84.1071V85.3995H79.0653V87.6953H83.9574V90.4138H79.0653V92.7203H84.1071V95.5339H76.1572V82.8972Z" fill="white"/>
<path d="M86.8392 82.8972H91.9336C93.2675 82.8972 94.1027 83.2326 94.876 83.8981C95.6533 84.5671 95.921 85.6258 96.044 86.6026C96.1302 87.2866 96.0808 87.9459 95.7219 88.6452C95.3698 89.3446 94.3078 90.1069 93.321 90.3411L97.209 95.5339H93.6844L90.0385 90.5047L89.7135 90.5047V95.5339H86.8392V82.8972ZM89.7338 85.3575V88.6209H90.771C92.2674 88.6209 93.0155 87.8601 93.0155 86.6988C93.0155 85.4026 91.6509 85.3641 90.8116 85.3575H89.7338Z" fill="white"/>
<path d="M97.3353 82.8972H106.864V85.6336H103.616V95.5339H100.562V85.6336H97.3353V82.8972Z" fill="white"/>
<path d="M110.447 82.8972H113.493L117.689 95.5339H114.607L113.807 93.2556H110.041L109.095 95.5339H106.218L110.447 82.8972ZM111.933 86.9621L110.564 90.8726H113.101L111.933 86.9621Z" fill="white"/>
<path d="M120.698 82.8972H123.545L125.873 89.9127L128.405 82.8972H131.232L132.865 95.5339H130.065L129.236 88.3709L126.436 95.5336H125.282L122.645 88.2401L121.435 95.5336L118.842 95.5339L120.698 82.8972Z" fill="white"/>
<path d="M134.77 82.8972H137.717V95.5339H134.77V82.8972Z" fill="white"/>
<path d="M148.784 82.9664H151.472V95.5338H148.494L143.305 88.0487V95.5338H140.397V82.9664H143.174L148.784 90.7441V82.9664Z" fill="white"/>
<path d="M157.52 82.8972H160.565L164.762 95.5339H161.68L160.879 93.2556H157.113L156.168 95.5339H153.291L157.52 82.8972ZM159.006 86.9621L157.637 90.8726H160.174L159.006 86.9621Z" fill="white"/>
<path d="M8.23804 104.349C8.23804 104.349 18.0639 88.4372 19.665 85.7993C21.2659 83.161 22.645 82.9132 27.068 82.9132H36.8165C36.2418 83.4042 35.2588 84.4292 34.5234 85.6338L24.6083 101.876C23.6169 103.691 21.5205 104.349 19.0048 104.349H8.23804Z" fill="white"/>
<path d="M47.0529 82.9132C42.63 82.9132 41.243 83.1609 39.5581 85.7992C37.8729 88.4371 33.3463 95.5454 33.3463 95.5454H44.6824C46.6616 95.5454 48.588 94.6606 49.4175 93.198L56.1151 82.9132H47.0529Z" fill="white"/>
<path d="M42.4084 67.2778C46.8313 67.2778 48.2182 67.5255 49.9032 70.1639C51.5884 72.8017 56.115 79.91 56.115 79.91H44.7789C42.7997 79.91 40.8733 79.0252 40.0438 77.5626L33.3462 67.2778H42.4084Z" fill="white"/>
</g>
<defs>
<clipPath id="clip0_4_711">
<rect width="156.524" height="37.0714" fill="white" transform="translate(8.23804 67.2778)"/>
</clipPath>
</defs>
</svg>
