<svg width="173" height="173" viewBox="0 0 173 173" fill="none" xmlns="http://www.w3.org/2000/svg">
<path fill-rule="evenodd" clip-rule="evenodd" d="M51.1998 35.4651H123.02V107.437H51.1998V35.4651ZM72.4602 59.6427C70.3006 59.6427 67.6041 60.4821 65.6786 61.5469V66.4018C65.6786 66.4018 68.841 64.3274 72.2352 64.286C73.9596 64.2638 74.9654 64.8102 75.9651 65.3532C76.9332 65.8791 77.8954 66.4018 79.4987 66.4018C81.0188 66.4018 81.967 65.9479 82.9762 65.4647C84.1245 64.915 85.3518 64.3274 87.5907 64.3274C89.7796 64.3274 90.9077 64.8885 91.9906 65.427C92.9899 65.924 93.9507 66.4018 95.6712 66.4018C97.459 66.4018 98.3311 65.8749 99.1964 65.3521C100.065 64.8273 100.927 64.3067 102.701 64.3274C106.269 64.3757 108.539 66.4018 108.539 66.4018V61.5469C108.539 61.5469 106.593 59.6427 102.34 59.6427C100.022 59.6427 99.1469 60.2034 98.3467 60.7163C97.6722 61.1486 97.0507 61.5469 95.662 61.5469C94.1922 61.5469 93.0114 61.0987 91.7957 60.6371C90.5057 60.1474 89.1765 59.6427 87.4209 59.6427C85.2613 59.6427 83.6549 60.2751 82.2936 60.811C81.2925 61.205 80.424 61.5469 79.5653 61.5469C78.7302 61.5469 78.0771 61.2236 77.3092 60.8433C76.2137 60.3009 74.8846 59.6427 72.4602 59.6427ZM65.6786 72.869C67.6041 71.8019 70.3006 70.9671 72.4602 70.9671C74.8846 70.9671 76.2137 71.6244 77.3092 72.1662C78.0771 72.546 78.7302 72.869 79.5653 72.869C80.424 72.869 81.2925 72.5275 82.2936 72.1339C83.6549 71.5987 85.2613 70.9671 87.4209 70.9671C89.1765 70.9671 90.5057 71.4711 91.7957 71.9603C93.0114 72.4213 94.1922 72.869 95.662 72.869C97.0507 72.869 97.6722 72.4711 98.3467 72.0393C99.1469 71.5271 100.022 70.9671 102.34 70.9671C106.593 70.9671 108.539 72.869 108.539 72.869V77.7262C108.539 77.7262 106.269 75.6863 102.701 75.6495C100.928 75.6322 100.066 76.1526 99.1985 76.6766C98.3325 77.1996 97.4604 77.7262 95.6712 77.7262C93.9507 77.7262 92.9899 77.2478 91.9906 76.7503C90.9077 76.2112 89.7796 75.6495 87.5907 75.6495C85.3518 75.6495 84.1245 76.2377 82.9762 76.7881C81.967 77.2718 81.0188 77.7262 79.4987 77.7262C77.8955 77.7262 76.9332 77.2046 75.9651 76.6799C74.9655 76.138 73.9596 75.5928 72.2352 75.615C68.841 75.6495 65.6786 77.7262 65.6786 77.7262V72.869ZM72.4602 82.2775C70.3006 82.2775 67.6041 83.1101 65.6786 84.1818V89.0528C65.6786 89.0528 68.841 86.9669 72.2352 86.9301C73.9585 86.9102 74.9642 87.4577 75.9633 88.0015C76.932 88.5288 77.8944 89.0528 79.4987 89.0528C81.0188 89.0528 81.967 88.5963 82.9762 88.1105C84.1245 87.5577 85.3518 86.9668 87.5907 86.9668C89.7796 86.9668 90.9077 87.531 91.9906 88.0725C92.9899 88.5723 93.9507 89.0528 95.6712 89.0528C97.46 89.0528 98.3321 88.5235 99.1979 87.9981C100.066 87.4713 100.928 86.9484 102.701 86.9668C106.269 87.0105 108.539 89.0528 108.539 89.0528V84.1818C108.539 84.1818 106.593 82.2775 102.34 82.2775C100.022 82.2775 99.1469 82.8382 98.3467 83.3511C97.6722 83.7834 97.0507 84.1818 95.662 84.1818C94.1922 84.1818 93.0114 83.7335 91.7957 83.2719C90.5057 82.7822 89.1765 82.2775 87.4209 82.2775C85.2613 82.2775 83.6549 82.9099 82.2936 83.4458C81.2925 83.8399 80.424 84.1818 79.5653 84.1818C78.7302 84.1818 78.0771 83.8584 77.3092 83.4781C76.2137 82.9357 74.8846 82.2775 72.4602 82.2775Z" fill="#4F4F4F"/>
<path fill-rule="evenodd" clip-rule="evenodd" d="M85.0777 99.8848L90.5144 72.5102L71.1979 81.0241L82.4867 45.0804H91.6825L80.9651 69.9988L100.038 62.2669L85.0777 99.8848Z" fill="white"/>
<path d="M50.9985 137.302H56.4559V130.334H61.8239C66.1584 130.334 69.0889 127.055 69.0889 122.515C69.0889 117.974 66.1584 114.758 61.8239 114.758H50.9985V137.302ZM102.979 137.302H108.435L108.408 124.11L117.41 137.302H123.374V114.758H117.918L117.93 128.504L108.497 114.758H102.979V137.302ZM77.6151 137.302H93.7408V132.573H83.074V114.758H77.6166V137.302H77.6151ZM56.4574 125.605V119.487H60.7962C62.6038 119.487 63.5407 120.717 63.5407 122.515C63.5407 124.312 62.6038 125.605 60.7025 125.605H56.4574Z" fill="white"/>
</svg>
